<?xml version="1.0" encoding="UTF-8" standalone="no"?>
<svg fill="#5865f2" width="512" height="512" viewBox="0 0 512 512" xmlns="http://www.w3.org/2000/svg">
  <circle cx="256" cy="256" r="256" />
  <path fill="#ffffff" d="m 402.42066,217.58425 h -29.28413 v -29.28413 c 0,-5.36876 -4.39262,-9.76138 -9.76138,-9.76138 h -29.28413 v -29.28413 c 0,-5.36877 -4.39262,-9.76138 -9.76138,-9.76138 H 187.67036 c -5.36876,0 -9.76138,4.39261 -9.76138,9.76138 v 29.28413 h -29.28413 c -5.36876,0 -9.76139,4.39262 -9.76139,9.76138 v 29.28413 h -29.28413 c -5.36875,0 -9.76137,4.39262 -9.76137,9.76138 v 136.65928 c 0,5.36876 4.39262,9.76138 9.76137,9.76138 h 48.8069 v -78.09102 h 19.52275 v 78.09102 h 39.04551 v -78.09102 h 19.52275 v 78.09102 h 39.04551 v -78.09102 h 19.52276 v 78.09102 h 39.04551 v -78.09102 h 19.52276 v 78.09102 h 48.80688 c 5.36876,0 9.76138,-4.39262 9.76138,-9.76138 V 227.34563 c 0,-5.36876 -4.39262,-9.76138 -9.76138,-9.76138 z" />
</svg>
