<svg viewBox="0 0 124 24" fill="none" xmlns="http://www.w3.org/2000/svg">
<path d="M37.2143 5.1H44.3543C45.5443 5.1 46.4057 5.372 46.9383 5.916C47.4823 6.44867 47.7543 7.31 47.7543 8.5V10.2C47.7543 11.39 47.4823 12.257 46.9383 12.801C46.4057 13.3337 45.5443 13.6 44.3543 13.6H40.2743V17H37.2143V5.1ZM44.6943 8.5C44.6943 7.82 44.3543 7.48 43.6743 7.48H40.2743V11.22H43.6743C44.3543 11.22 44.6943 10.88 44.6943 10.2V8.5ZM52.6837 14.79C53.2843 14.79 53.9643 14.6767 54.7237 14.45V13.43H52.2587C52.0887 13.43 51.947 13.4867 51.8337 13.6C51.7203 13.7133 51.6637 13.855 51.6637 14.025V14.195C51.6637 14.365 51.7203 14.5067 51.8337 14.62C51.947 14.7333 52.0887 14.79 52.2587 14.79H52.6837ZM49.5387 8.16C51.6127 7.93333 53.4827 7.82 55.1487 7.82C55.9193 7.82 56.537 8.05233 57.0017 8.517C57.4663 8.98167 57.6987 9.59933 57.6987 10.37V17H55.0637L54.8937 16.15C54.361 16.5013 53.8113 16.762 53.2447 16.932C52.6893 17.0907 52.219 17.17 51.8337 17.17H51.2387C50.468 17.17 49.8503 16.9377 49.3857 16.473C48.921 16.0083 48.6887 15.3907 48.6887 14.62V13.855C48.6887 13.0843 48.921 12.4667 49.3857 12.002C49.8503 11.5373 50.468 11.305 51.2387 11.305H54.7237V10.625C54.7237 10.455 54.667 10.3133 54.5537 10.2C54.4403 10.0867 54.2987 10.03 54.1287 10.03C53.392 10.03 52.576 10.064 51.6807 10.132C50.7967 10.2 50.0827 10.251 49.5387 10.285V8.16ZM65.514 17C64.4147 17.1133 63.338 17.17 62.284 17.17C61.5134 17.17 60.8957 16.9377 60.431 16.473C59.9664 16.0083 59.734 15.3907 59.734 14.62V10.285H58.714V7.99H59.734L60.074 5.95H62.709V7.99H64.834V10.285H62.709V14.195C62.709 14.365 62.7657 14.5067 62.879 14.62C62.9924 14.7333 63.134 14.79 63.304 14.79H65.514V17ZM74.5353 16.83C72.416 17.0567 70.546 17.17 68.9253 17.17C68.1546 17.17 67.537 16.9377 67.0723 16.473C66.6076 16.0083 66.3753 15.3907 66.3753 14.62V10.71C66.3753 9.86 66.6133 9.197 67.0893 8.721C67.5766 8.23367 68.2453 7.99 69.0953 7.99H74.5353V10.285H70.0303C69.577 10.285 69.3503 10.5117 69.3503 10.965V14.28C69.3503 14.45 69.407 14.5917 69.5203 14.705C69.6336 14.8183 69.7753 14.875 69.9453 14.875C70.9653 14.875 72.4953 14.79 74.5353 14.62V16.83ZM78.867 8.16C79.9663 7.93333 80.9297 7.82 81.757 7.82H82.522C83.2927 7.82 83.9103 8.05233 84.375 8.517C84.8397 8.98167 85.072 9.59933 85.072 10.37V17H82.097V10.71C82.097 10.54 82.0403 10.3983 81.927 10.285C81.8137 10.1717 81.672 10.115 81.502 10.115H80.907C80.4763 10.115 80.0797 10.1377 79.717 10.183C79.3657 10.2283 79.0823 10.2623 78.867 10.285V17H75.892V5.1H78.867V8.16ZM94.59 16.83C92.4707 17.0567 90.6007 17.17 88.98 17.17C88.2093 17.17 87.5917 16.9377 87.127 16.473C86.6623 16.0083 86.43 15.3907 86.43 14.62V10.71C86.43 9.86 86.668 9.197 87.144 8.721C87.6313 8.23367 88.3 7.99 89.15 7.99H94.59V10.285H90.085C89.6317 10.285 89.405 10.5117 89.405 10.965V14.28C89.405 14.45 89.4617 14.5917 89.575 14.705C89.6883 14.8183 89.83 14.875 90 14.875C91.02 14.875 92.55 14.79 94.59 14.62V16.83ZM105.127 14.45C105.127 15.3 104.883 15.9687 104.396 16.456C103.92 16.932 103.257 17.17 102.407 17.17H98.4967C97.6467 17.17 96.978 16.932 96.4907 16.456C96.0147 15.9687 95.7767 15.3 95.7767 14.45V10.54C95.7767 9.69 96.0147 9.027 96.4907 8.551C96.978 8.06367 97.6467 7.82 98.4967 7.82H102.407C103.257 7.82 103.92 8.06367 104.396 8.551C104.883 9.027 105.127 9.69 105.127 10.54V14.45ZM102.152 10.795C102.152 10.3417 101.925 10.115 101.472 10.115H99.4317C98.9783 10.115 98.7517 10.3417 98.7517 10.795V14.195C98.7517 14.6483 98.9783 14.875 99.4317 14.875H101.472C101.925 14.875 102.152 14.6483 102.152 14.195V10.795ZM111.84 10.455C111.126 10.455 110.389 10.625 109.63 10.965V17H106.655V7.99H109.29L109.46 9.095C110.434 8.245 111.454 7.82 112.52 7.82H113.285V10.455H111.84ZM120.517 17L120.347 16.15C119.814 16.5013 119.265 16.762 118.698 16.932C118.143 17.0907 117.672 17.17 117.287 17.17H116.522C115.751 17.17 115.134 16.9377 114.669 16.473C114.204 16.0083 113.972 15.3907 113.972 14.62V10.71C113.972 9.86 114.21 9.197 114.686 8.721C115.173 8.23367 115.842 7.99 116.692 7.99H120.177V5.1H123.152V17H120.517ZM118.137 14.705C118.738 14.705 119.418 14.5917 120.177 14.365V10.285H117.627C117.174 10.285 116.947 10.5117 116.947 10.965V14.11C116.947 14.28 117.004 14.4217 117.117 14.535C117.23 14.6483 117.372 14.705 117.542 14.705H118.137Z" fill="currentColor"/>
<path d="M30.0312 8H27.125V5C27.125 4.45 26.6891 4 26.1562 4H23.25V1C23.25 0.45 22.8141 0 22.2812 0H8.71875C8.18594 0 7.75 0.45 7.75 1V4H4.84375C4.31094 4 3.875 4.45 3.875 5V8H0.96875C0.435937 8 0 8.45 0 9V23C0 23.55 0.435937 24 0.96875 24H5.8125V16H7.75V24H11.625V16H13.5625V24H17.4375V16H19.375V24H23.25V16H25.1875V24H30.0312C30.5641 24 31 23.55 31 23V9C31 8.45 30.5641 8 30.0312 8Z" fill="currentColor"/>
</svg>
