<svg viewBox="0 0 86 13" fill="none" xmlns="http://www.w3.org/2000/svg">
<path d="M-4.23193e-06 -6.91414e-06H7.14C8.33 -6.91414e-06 9.19133 0.271993 9.724 0.815994C10.268 1.34866 10.54 2.20999 10.54 3.39999V5.09999C10.54 6.28999 10.268 7.15699 9.724 7.70099C9.19133 8.23366 8.33 8.49999 7.14 8.49999H3.06V11.9H-4.23193e-06V-6.91414e-06ZM7.48 3.39999C7.48 2.71999 7.14 2.37999 6.46 2.37999H3.06V6.11999H6.46C7.14 6.11999 7.48 5.77999 7.48 5.09999V3.39999ZM15.4693 9.68999C16.07 9.68999 16.75 9.57666 17.5093 9.34999V8.32999H15.0443C14.8743 8.32999 14.7327 8.38666 14.6193 8.49999C14.506 8.61333 14.4493 8.75499 14.4493 8.92499V9.09499C14.4493 9.26499 14.506 9.40666 14.6193 9.51999C14.7327 9.63333 14.8743 9.68999 15.0443 9.68999H15.4693ZM12.3243 3.05999C14.3983 2.83333 16.2683 2.71999 17.9343 2.71999C18.705 2.71999 19.3227 2.95233 19.7873 3.41699C20.252 3.88166 20.4843 4.49933 20.4843 5.26999V11.9H17.8493L17.6793 11.05C17.1467 11.4013 16.597 11.662 16.0303 11.832C15.475 11.9907 15.0047 12.07 14.6193 12.07H14.0243C13.2537 12.07 12.636 11.8377 12.1713 11.373C11.7067 10.9083 11.4743 10.2907 11.4743 9.51999V8.75499C11.4743 7.98433 11.7067 7.36666 12.1713 6.90199C12.636 6.43733 13.2537 6.20499 14.0243 6.20499H17.5093V5.52499C17.5093 5.35499 17.4527 5.21333 17.3393 5.09999C17.226 4.98666 17.0843 4.92999 16.9143 4.92999C16.1777 4.92999 15.3617 4.96399 14.4663 5.03199C13.5823 5.09999 12.8683 5.15099 12.3243 5.18499V3.05999ZM28.2997 11.9C27.2004 12.0133 26.1237 12.07 25.0697 12.07C24.299 12.07 23.6813 11.8377 23.2167 11.373C22.752 10.9083 22.5197 10.2907 22.5197 9.51999V5.18499H21.4997V2.88999H22.5197L22.8597 0.849993H25.4947V2.88999H27.6197V5.18499H25.4947V9.09499C25.4947 9.26499 25.5514 9.40666 25.6647 9.51999C25.778 9.63333 25.9197 9.68999 26.0897 9.68999H28.2997V11.9ZM37.321 11.73C35.2016 11.9567 33.3316 12.07 31.711 12.07C30.9403 12.07 30.3226 11.8377 29.858 11.373C29.3933 10.9083 29.161 10.2907 29.161 9.51999V5.60999C29.161 4.75999 29.399 4.09699 29.875 3.62099C30.3623 3.13366 31.031 2.88999 31.881 2.88999H37.321V5.18499H32.816C32.3626 5.18499 32.136 5.41166 32.136 5.86499V9.17999C32.136 9.34999 32.1926 9.49166 32.306 9.60499C32.4193 9.71833 32.561 9.77499 32.731 9.77499C33.751 9.77499 35.281 9.68999 37.321 9.51999V11.73ZM41.6527 3.05999C42.752 2.83333 43.7153 2.71999 44.5427 2.71999H45.3077C46.0783 2.71999 46.696 2.95233 47.1607 3.41699C47.6253 3.88166 47.8577 4.49933 47.8577 5.26999V11.9H44.8827V5.60999C44.8827 5.43999 44.826 5.29833 44.7127 5.18499C44.5993 5.07166 44.4577 5.01499 44.2877 5.01499H43.6927C43.262 5.01499 42.8653 5.03766 42.5027 5.08299C42.1513 5.12833 41.868 5.16233 41.6527 5.18499V11.9H38.6777V-6.91414e-06H41.6527V3.05999ZM57.3757 11.73C55.2563 11.9567 53.3863 12.07 51.7657 12.07C50.995 12.07 50.3773 11.8377 49.9127 11.373C49.448 10.9083 49.2157 10.2907 49.2157 9.51999V5.60999C49.2157 4.75999 49.4537 4.09699 49.9297 3.62099C50.417 3.13366 51.0857 2.88999 51.9357 2.88999H57.3757V5.18499H52.8707C52.4173 5.18499 52.1907 5.41166 52.1907 5.86499V9.17999C52.1907 9.34999 52.2473 9.49166 52.3607 9.60499C52.474 9.71833 52.6157 9.77499 52.7857 9.77499C53.8057 9.77499 55.3357 9.68999 57.3757 9.51999V11.73ZM67.9123 9.34999C67.9123 10.2 67.6687 10.8687 67.1813 11.356C66.7053 11.832 66.0423 12.07 65.1923 12.07H61.2823C60.4323 12.07 59.7637 11.832 59.2763 11.356C58.8003 10.8687 58.5623 10.2 58.5623 9.34999V5.43999C58.5623 4.58999 58.8003 3.92699 59.2763 3.45099C59.7637 2.96366 60.4323 2.71999 61.2823 2.71999H65.1923C66.0423 2.71999 66.7053 2.96366 67.1813 3.45099C67.6687 3.92699 67.9123 4.58999 67.9123 5.43999V9.34999ZM64.9373 5.69499C64.9373 5.24166 64.7107 5.01499 64.2573 5.01499H62.2173C61.764 5.01499 61.5373 5.24166 61.5373 5.69499V9.09499C61.5373 9.54833 61.764 9.77499 62.2173 9.77499H64.2573C64.7107 9.77499 64.9373 9.54833 64.9373 9.09499V5.69499ZM74.6253 5.35499C73.9113 5.35499 73.1747 5.52499 72.4153 5.86499V11.9H69.4403V2.88999H72.0753L72.2453 3.99499C73.22 3.14499 74.24 2.71999 75.3053 2.71999H76.0703V5.35499H74.6253ZM83.3027 11.9L83.1327 11.05C82.6 11.4013 82.0503 11.662 81.4837 11.832C80.9283 11.9907 80.458 12.07 80.0727 12.07H79.3077C78.537 12.07 77.9193 11.8377 77.4547 11.373C76.99 10.9083 76.7577 10.2907 76.7577 9.51999V5.60999C76.7577 4.75999 76.9957 4.09699 77.4717 3.62099C77.959 3.13366 78.6277 2.88999 79.4777 2.88999H82.9627V-6.91414e-06H85.9377V11.9H83.3027ZM80.9227 9.60499C81.5233 9.60499 82.2033 9.49166 82.9627 9.26499V5.18499H80.4127C79.9593 5.18499 79.7327 5.41166 79.7327 5.86499V9.00999C79.7327 9.17999 79.7893 9.32166 79.9027 9.43499C80.016 9.54833 80.1577 9.60499 80.3277 9.60499H80.9227Z" fill="currentColor"/>
</svg>
