<svg viewBox="0 0 110 111" fill="none" xmlns="http://www.w3.org/2000/svg">
    <path d="M47.7571 28.271V35.0934H81.8693V28.271H47.7571Z" fill="#C3C8FC"/>
    <path d="M54.5795 41.9159V48.7384H75.0469V41.9159H54.5795Z" fill="#C3C8FC"/>
    <path d="M27.29 7.80322H34.1125V76.0278H27.29V7.80322Z" fill="#000066"/>
    <path fill-rule="evenodd" clip-rule="evenodd" d="M95.5142 7.80322H88.6917V14.6257H34.1121V69.2053H95.5142V7.80322ZM81.8693 35.093V28.2706H47.757V35.093H81.8693ZM75.0468 41.9155V48.7379H54.5794V41.9155H75.0468Z" fill="#5865F2"/>
    <path d="M13.6447 14.6257H27.2896V69.2053H13.6447V76.0278H6.82227V62.3829H13.6447V14.6257Z" fill="#5865F2"/>
    <path d="M95.5142 7.80322H102.337V76.0278H34.1121V69.2053H95.5142V7.80322Z" fill="#2D35AD"/>
    <path d="M13.6447 69.2053V76.0278H6.82227V82.8502H13.6447V76.0278H27.2896V69.2053H13.6447Z" fill="#2D35AD"/>
    <path d="M13.6447 14.6257V7.80322H27.2896V14.6257H13.6447Z" fill="white"/>
    <path d="M13.6447 14.6257V62.3829H6.82227V14.6257H13.6447Z" fill="white"/>
    <path d="M34.1121 14.6257V7.80322H88.6917V14.6257H34.1121Z" fill="white"/>
    <path d="M20.4672 82.8502H13.6447V89.6727H6.82227V96.4951H13.6447V89.6727H20.4672V82.8502Z" fill="white"/>
    <path d="M27.2896 82.8502H34.1121V89.6727H27.2896V82.8502Z" fill="white"/>
    <path d="M40.9349 82.8506H34.1125V89.673H27.29V96.4955H34.1125V89.673H40.9349V82.8506Z" fill="#FF4CD2"/>
    <path d="M47.7573 82.8506H40.9348V96.4955H47.7573V82.8506Z" fill="#B3269C"/>
    <path d="M54.58 82.8506H95.5147V96.4955H54.58V82.8506Z" fill="#FBE6FF"/>
    <path d="M20.4677 89.673H13.6453V96.4955H20.4677V89.673Z" fill="#FBE6FF"/>
    <path d="M95.5147 82.8506H102.337V103.318H47.7575V96.4955H95.5147V82.8506Z" fill="#FCC0F4"/>
    <path d="M13.6453 96.4955H27.2902V103.318H13.6453V96.4955Z" fill="#FCC0F4"/>
    <path d="M40.9351 96.4955H34.1126V103.318H40.9351V96.4955Z" fill="#FCC0F4"/>
    <path d="M40.9347 96.4953H34.1123V89.6729H40.9347V96.4953Z" fill="black"/>
    <path fill-rule="evenodd" clip-rule="evenodd" d="M13.6449 0.980957V7.80341H6.82245V14.6259H0V96.4953H6.82245V103.318H13.6449V110.14H102.337V103.318H109.159V7.80341H102.337V0.980957H13.6449ZM13.6449 82.8504V89.6729H6.82245V96.4953H13.6449V103.318H27.2898V96.4953H34.1123V103.318H40.9347V96.4953H47.7572V103.318H102.337V82.8504H54.5796V96.4953H47.7572V82.8504H27.2898V96.4953H20.4674V82.8504H13.6449ZM13.6449 82.8504H6.82245V14.6259H13.6449V7.80341H102.337V76.0279H13.6449V82.8504Z" fill="black"/>
</svg>