<svg viewBox="0 0 109 110" fill="none" xmlns="http://www.w3.org/2000/svg">
    <path fill-rule="evenodd" clip-rule="evenodd" d="M13.6243 13.8047V34.2422H27.2493V27.4297H34.0618V20.6172H95.3743V13.8047H13.6243ZM20.4368 27.4297H27.2493V20.6172H20.4368V27.4297Z" fill="#35ED7E"/>
    <path d="M95.3741 6.99219H88.5616V13.8047H95.3741V20.6172H102.187V13.8047H95.3741V6.99219Z" fill="#21BB63"/>
    <path d="M34.0616 20.6172H40.8741V27.4297H34.0616V20.6172Z" fill="#21BB63"/>
    <path d="M27.2491 34.2422H34.0616V27.4297H27.2491V34.2422Z" fill="#21BB63"/>
    <path d="M27.2491 41.0547V34.2422H6.81165V41.0547H27.2491Z" fill="#21BB63"/>
    <path d="M40.8743 20.6172H102.187V27.4297H40.8743V20.6172Z" fill="#006638"/>
    <path d="M34.0618 34.2422H40.8743V27.4297H34.0618V34.2422Z" fill="#006638"/>
    <path d="M27.2493 41.0547V34.2422H34.0618V41.0547H27.2493Z" fill="#006638"/>
    <path d="M27.2493 41.0547H13.6243V47.8672H27.2493V41.0547Z" fill="#006638"/>
    <path fill-rule="evenodd" clip-rule="evenodd" d="M61.3136 27.4297H54.501V34.2423H61.3136V27.4297ZM40.8751 47.8673V41.0548V41.0547V34.2422H34.0625V41.0547V41.0548V47.8673H40.8751ZM54.501 41.0549V47.8673H61.3136V41.0549V41.0547V34.2423H54.501V41.0547V41.0549ZM74.9365 47.8673V41.0548V41.0547V34.2423V34.2422V27.4297H81.7491V34.2422V34.2423V41.0547V41.0548V47.8673H74.9365Z" fill="#FE9242"/>
    <path d="M61.3135 27.4297H74.9385V47.8672H61.3135V27.4297Z" fill="#FFDAAB"/>
    <path d="M34.0635 41.0547H27.251V47.8672H34.0635V41.0547Z" fill="#FFDAAB"/>
    <path d="M40.876 34.2422V47.8672H54.501V34.2422H40.876Z" fill="#FFDAAB"/>
    <path d="M88.5635 47.8672V27.4297H81.751V47.8672H88.5635Z" fill="#FFDAAB"/>
    <path d="M40.876 27.4297V34.2422H54.501V27.4297H40.876Z" fill="#FFB676"/>
    <path d="M95.376 27.4297H88.5635V47.8672H20.4385V54.6797H95.376V27.4297Z" fill="#FFB676"/>
    <path d="M20.4385 68.3047H88.5635V75.1172H74.9385V81.9297H68.126V88.7422H61.3135V95.5547H47.6885V88.7422H40.876V81.9297H27.251V75.1172H20.4385V68.3047Z" fill="#FE6E0D"/>
    <path d="M13.6241 6.99219H88.5616V13.8047H13.6241V6.99219Z" fill="white"/>
    <path d="M13.6241 13.8047V34.2422H6.81165V13.8047H13.6241Z" fill="white"/>
    <path d="M27.2491 20.6172H20.4366V27.4297H27.2491V20.6172Z" fill="white"/>
    <path d="M13.6241 47.8672H20.4366V54.6797H13.6241V47.8672Z" fill="white"/>
    <path d="M20.4366 75.1172V68.3047H88.5616V61.4922H13.6241V75.1172H20.4366Z" fill="white"/>
    <path d="M20.4366 75.1172H27.2491V81.9297H20.4366V75.1172Z" fill="white"/>
    <path d="M34.0616 81.9297H40.8741V88.7422H34.0616V81.9297Z" fill="white"/>
    <path d="M40.8741 88.7422V95.5547H47.6866V88.7422H40.8741Z" fill="white"/>
    <path d="M13.625 54.6797H6.8125V61.4922H13.625H95.375H102.188V54.6797H95.375H13.625Z" fill="black"/>
    <path d="M13.625 0.179688H95.375V6.99219H13.625V0.179688Z" fill="black"/>
    <path d="M6.8125 13.8047V6.99219H13.625V13.8047H6.8125Z" fill="black"/>
    <path d="M6.8125 41.0547H0V13.8047H6.8125V41.0547Z" fill="black"/>
    <path d="M6.8125 41.0547H13.625V54.6797H6.8125V41.0547Z" fill="black"/>
    <path d="M102.188 13.8047H95.375V6.99219H102.188V13.8047Z" fill="black"/>
    <path d="M102.188 27.4297V13.8047H109V27.4297H102.188Z" fill="black"/>
    <path d="M102.188 27.4297V54.6797H95.375V27.4297H102.188Z" fill="black"/>
    <path d="M13.625 75.1172H6.8125V61.4922H13.625V75.1172Z" fill="black"/>
    <path d="M20.4375 81.9297V75.1172H13.625V81.9297H20.4375Z" fill="black"/>
    <path d="M34.0625 88.7422V81.9297H20.4375V88.7422H34.0625Z" fill="black"/>
    <path d="M68.125 102.367H40.875V88.7422H34.0625V109.18H74.9375V88.7422H88.5625V81.9297H95.375V75.1172H102.188V61.4922H95.375V75.1172H88.5625V81.9297H74.9375V88.7422H68.125V102.367Z" fill="black"/>
    <path d="M95.3749 61.4922H88.5623V75.1174H74.9371V81.93H68.1245V88.7426H61.3119V95.5553H40.874V102.368H68.1245V88.7426H74.9371V81.93H88.5623V75.1174H95.3749V61.4922Z" fill="#E54D0A"/>
</svg>