<svg viewBox="0 0 110 97" fill="none" xmlns="http://www.w3.org/2000/svg">
    <path d="M27.4075 7.55615H82.2232V14.4081H27.4075V7.55615Z" fill="white"/>
    <path d="M27.4075 14.4081V41.816H20.5555V14.4081H27.4075Z" fill="white"/>
    <path d="M6.85156 34.964H13.7035V55.5199H6.85156V34.964Z" fill="white"/>
    <path d="M34.2599 21.2598H41.1119V28.1117H34.2599V21.2598Z" fill="#8C1381"/>
    <path d="M34.2599 34.9637H27.4079V28.1117H34.2599V34.9637Z" fill="#8C1381"/>
    <path d="M41.1119 34.9637V41.8157H34.2599V34.9637H41.1119Z" fill="#8C1381"/>
    <path d="M41.1119 34.9637H47.9638V28.1117H41.1119V34.9637Z" fill="#8C1381"/>
    <path fill-rule="evenodd" clip-rule="evenodd" d="M75.3717 34.9637H82.2237V28.1117H75.3717V21.2598H68.5197V28.1117H61.6678V34.9637H68.5197V41.8157H75.3717V34.9637ZM75.3717 34.9637H68.5197V28.1117H75.3717V34.9637Z" fill="#8C1381"/>
    <path d="M20.5559 41.8157H27.4079V55.5196H20.5559V41.8157Z" fill="#8C1381"/>
    <path d="M89.0757 41.8157H82.2237V55.5196H89.0757V41.8157Z" fill="#8C1381"/>
    <path d="M13.704 62.3716H20.5559V69.2236H13.704V62.3716Z" fill="#8C1381"/>
    <path d="M95.9276 62.3716H89.0757V69.2236H95.9276V62.3716Z" fill="#8C1381"/>
    <path d="M20.5557 55.52V62.372H89.0754V55.52H20.5557Z" fill="black"/>
    <path d="M27.4075 14.4082H82.2232V28.1121H75.3713V21.2602H68.5193V28.1121H61.6673V34.9641H68.5193V41.8161H75.3713V34.9641H82.2232V48.6681H27.4075V34.9641H34.2594V41.8161H41.1114V34.9641H47.9634V28.1121H41.1114V21.2602H34.2594V28.1121H27.4075V14.4082Z" fill="#FF4CD2"/>
    <path d="M34.2594 28.1121H41.1114V34.9641H34.2594V28.1121Z" fill="#FF4CD2"/>
    <path d="M75.3713 34.9641H68.5193V28.1121H75.3713V34.9641Z" fill="#FF4CD2"/>
    <path d="M13.7035 41.8161H20.5555V62.372H13.7035V69.224H6.85156V55.52H13.7035V41.8161Z" fill="#FF4CD2"/>
    <path d="M89.0752 62.372H20.5555V69.224H89.0752V62.372Z" fill="#FF4CD2"/>
    <path d="M89.0752 62.372H95.9272V41.8161H89.0752V62.372Z" fill="#FF4CD2"/>
    <path d="M82.2237 14.4082H89.0757V41.8161H82.2237V14.4082Z" fill="#B3269C"/>
    <path d="M102.78 34.9641H95.9276V69.224H13.704V76.0759H95.9276V69.224H102.78V34.9641Z" fill="#B3269C"/>
    <path d="M27.4079 48.6681H82.2237V55.52H27.4079V48.6681Z" fill="#B3269C"/>
    <path d="M34.2602 82.9277H27.4082V89.7797H34.2602V82.9277Z" fill="#FE9242"/>
    <path d="M82.224 82.9277H75.372V89.7797H82.224V82.9277Z" fill="#FE9242"/>
    <path d="M27.4079 0.704102H82.2236V7.55607H27.4079V0.704102Z" fill="black"/>
    <path d="M20.5559 14.408V7.55607H27.4079V14.408H20.5559Z" fill="black"/>
    <path d="M6.85197 34.964V28.112H13.7039V14.408H20.5559V41.8159H13.7039V34.964H6.85197Z" fill="black"/>
    <path d="M6.85197 69.2238H0V34.964H6.85197V69.2238Z" fill="black"/>
    <path d="M13.7039 76.0758H6.85197V69.2238H13.7039V76.0758Z" fill="black"/>
    <path fill-rule="evenodd" clip-rule="evenodd" d="M95.9276 76.0758H13.7039V82.9277H20.5559V89.7797H27.4079V96.6317H34.2598V89.7797H41.1118V82.9277H68.5197V89.7797H75.3717V96.6317H82.2236V89.7797H89.0756V82.9277H95.9276V76.0758ZM82.2236 82.9277V89.7797H75.3717V82.9277H82.2236ZM34.2598 89.7797V82.9277H27.4079V89.7797H34.2598Z" fill="black"/>
    <path d="M102.78 69.2238V76.0758H95.9276V69.2238H102.78Z" fill="black"/>
    <path d="M102.78 34.964H109.632V69.2238H102.78V34.964Z" fill="black"/>
    <path d="M89.0756 14.408H95.9276V28.112H102.78V34.964H95.9276V41.8159H89.0756V14.408Z" fill="black"/>
    <path d="M89.0756 14.408V7.55607H82.2236V14.408H89.0756Z" fill="black"/>
</svg>