<svg viewBox="0 0 110 109" fill="none" xmlns="http://www.w3.org/2000/svg">
    <path d="M34.2012 13.625V47.6875H27.3887V54.5H13.7637V61.3125H20.5762V68.125H27.3887V74.9375H34.2012V81.75H41.0137V88.5625H47.8262V95.375H61.4512V88.5625H68.2637V81.75H75.0762V74.9375H81.8887V68.125H88.7012V61.3125H95.5137V47.6875H75.0762V13.625H34.2012Z" fill="#35ED7E"/>
    <path d="M27.3887 6.8125H81.8887V13.625H34.2012V47.6875H27.3887V6.8125Z" fill="white"/>
    <path d="M27.3887 47.6875V54.5H13.7637V61.3125H6.95117V47.6875H27.3887Z" fill="white"/>
    <path d="M75.0762 13.625H81.8887V47.6875H75.0762V13.625Z" fill="#108E4D"/>
    <path d="M102.326 47.6875H95.5137V61.3125H88.7012V68.125H81.8887V74.9375H75.0762V81.75H68.2637V88.5625H61.4512V95.375H47.8262V88.5625H41.0137V81.75H34.2012V74.9375H27.3887V68.125H20.5762V61.3125H13.7637V68.125H20.5762V74.9375H27.3887V81.75H34.2012V88.5625H41.0137V95.375H47.8262V102.188H61.4512V95.375H68.2637V88.5625H75.0762V81.75H81.8887V74.9375H88.7012V68.125H95.5137V61.3125H102.326V47.6875Z" fill="#108E4D"/>
    <path d="M27.3887 0V6.8125H81.8887V0H27.3887Z" fill="black"/>
    <path d="M20.5762 6.8125H27.3887V47.6875H6.95117V40.875H20.5762V6.8125Z" fill="black"/>
    <path d="M6.95117 61.3125H0.138672V47.6875H6.95117V61.3125Z" fill="black"/>
    <path d="M13.7637 68.125H6.95117V61.3125H13.7637V68.125Z" fill="black"/>
    <path d="M20.5762 74.9375H13.7637V68.125H20.5762V74.9375Z" fill="black"/>
    <path d="M27.3887 81.75H20.5762V74.9375H27.3887V81.75Z" fill="black"/>
    <path d="M34.2012 88.5625H27.3887V81.75H34.2012V88.5625Z" fill="black"/>
    <path d="M41.0137 95.375H34.2012V88.5625H41.0137V95.375Z" fill="black"/>
    <path d="M47.8262 102.188H41.0137V95.375H47.8262V102.188Z" fill="black"/>
    <path d="M61.4512 102.188V109H47.8262V102.188H61.4512Z" fill="black"/>
    <path d="M68.2637 95.375H61.4512V102.188H68.2637V95.375Z" fill="black"/>
    <path d="M75.0762 88.5625V95.375H68.2637V88.5625H75.0762Z" fill="black"/>
    <path d="M81.8887 81.75H75.0762V88.5625H81.8887V81.75Z" fill="black"/>
    <path d="M88.7012 74.9375V81.75H81.8887V74.9375H88.7012Z" fill="black"/>
    <path d="M95.5137 68.125V74.9375H88.7012V68.125H95.5137Z" fill="black"/>
    <path d="M102.326 61.3125V68.125H95.5137V61.3125H102.326Z" fill="black"/>
    <path d="M102.326 47.6875H109.139V61.3125H102.326V47.6875Z" fill="black"/>
    <path d="M102.326 47.6875H81.8887V6.8125H88.7012V40.875H102.326V47.6875Z" fill="black"/>
</svg>