<svg viewBox="0 0 110 83" fill="none" xmlns="http://www.w3.org/2000/svg">
    <rect x="69.0034" y="27.9351" width="6.82245" height="6.82245" fill="#5865F2"/>
    <rect x="82.6482" y="27.9351" width="6.82245" height="6.82245" fill="#FF4CD2"/>
    <rect x="75.8259" y="34.7573" width="6.82245" height="6.82245" fill="#35ED7E"/>
    <path d="M21.246 7.46729V14.2897H14.4235V21.1122H7.60107V41.5796H14.4235V21.1122H21.246V14.2897H48.5358V21.1122H62.1807V14.2897H89.4705V7.46729H62.1807V14.2897H48.5358V7.46729H21.246Z" fill="white"/>
    <path d="M34.8915 21.1123H28.069V27.9348H21.2466V34.7572H28.069V41.5797H34.8915V34.7572H41.7139V27.9348H34.8915V21.1123Z" fill="#161A8A"/>
    <rect x="75.8259" y="21.1123" width="6.82245" height="6.82245" fill="#FFE047"/>
    <path d="M75.8257 34.7574V27.9349H82.6481V34.7574H75.8257Z" fill="#C3C8FC"/>
    <path fill-rule="evenodd" clip-rule="evenodd" d="M21.246 14.29V21.1125H14.4236V48.4023H21.246V55.2248H41.7134V48.4023H69.0032V55.2248H89.4706V48.4023H96.293V41.5799H103.115V21.1125H96.293V14.29H62.1808V21.1125H48.5359V14.29H21.246ZM75.8257 41.5799H82.6481V34.7574H89.4706V27.9349H82.6481V21.1125H75.8257V27.9349H69.0032V34.7574H75.8257V41.5799ZM34.8909 34.7574V41.5799H28.0685V34.7574H21.246V27.9349H28.0685V21.1125H34.8909V27.9349H41.7134V34.7574H34.8909Z" fill="#C3C8FC"/>
    <path fill-rule="evenodd" clip-rule="evenodd" d="M21.2462 0.64502V7.46747H14.4237V14.2899H7.60126V21.1124H0.778809V68.8696H7.60126V75.692H14.4237V82.5145H28.0686V75.692H34.8911V68.8696H41.7135V62.0471H48.536V55.2246H62.1809V62.0471H69.0033V68.8696H75.8258V75.692H82.6483V82.5145H96.2932V75.692H103.116V68.8696H109.938V21.1124H103.116V14.2899H96.2932V7.46747H89.4707V0.64502H62.1809V7.46747H48.536V0.64502H21.2462ZM48.536 7.46747V14.2899H62.1809V7.46747H89.4707V14.2899H96.2932V21.1124H103.116V68.8696H96.2932V75.692H82.6483V68.8696H75.8258V62.0471H69.0033V55.2246H62.1809V48.4022H48.536V55.2246H41.7135V62.0471H34.8911V68.8696H28.0686V75.692H14.4237V68.8696H7.60126V21.1124H14.4237V14.2899H21.2462V7.46747H48.536Z" fill="black"/>
    <path d="M14.4235 41.5796H7.60107V68.8694H14.4235V75.6919H28.0684V68.8694H34.8909V62.047H41.7133V55.2245H48.5358V48.402H41.7133V55.2245H21.246V48.402H14.4235V41.5796Z" fill="#5865F2"/>
    <path d="M96.293 41.5796H103.115V68.8694H96.293V75.6919H82.6481V68.8694H75.8256V62.047H69.0032V55.2245H89.4705V48.402H96.293V41.5796Z" fill="#5865F2"/>
    <path d="M69.0032 55.2245H62.1807V48.402H69.0032V55.2245Z" fill="#5865F2"/>
</svg>