<svg viewBox="0 0 110 110" fill="none" xmlns="http://www.w3.org/2000/svg">
    <path d="M34.2594 6.85205H75.3713V13.704H34.2594V6.85205Z" fill="white"/>
    <path d="M20.5555 20.556V13.704H34.2594V20.556H20.5555Z" fill="white"/>
    <path d="M13.7035 34.2599H20.5555V20.556H13.7035V34.2599Z" fill="white"/>
    <path d="M13.7035 34.2599H6.85156V54.8158H13.7035V34.2599Z" fill="white"/>
    <path d="M95.9275 34.2598H102.779V75.3716H95.9275V34.2598Z" fill="#21BB63"/>
    <path d="M34.2599 95.9277V102.78H47.9638V95.9277H34.2599Z" fill="#21BB63"/>
    <path d="M34.2599 13.7041V20.5561H20.5559V34.26H13.704V54.8159H20.5559V68.5199H34.2599V75.3718H41.1119V89.0758H34.2599V95.9277H54.8158V89.0758H68.5197V75.3718H54.8158V68.5199H47.9638V61.6679H34.2599V54.8159H27.4079V34.26H41.1119V41.112H47.9638V34.26H54.8158V27.408H68.5197V13.7041H34.2599Z" fill="#35ED7E"/>
    <path d="M95.9276 47.964H89.0757V61.6679H95.9276V47.964Z" fill="#35ED7E"/>
    <path d="M68.5197 13.7041H75.3717V27.408H68.5197V13.7041Z" fill="#006638"/>
    <path d="M54.8158 34.26V27.408H68.5197V34.26H54.8158Z" fill="#006638"/>
    <path d="M47.9638 41.112V34.26H54.8158V41.112H47.9638Z" fill="#006638"/>
    <path d="M41.1119 41.112H47.9638V47.964H41.1119V41.112Z" fill="#006638"/>
    <path d="M34.2599 54.8159H27.4079V34.26H41.1119V41.112H34.2599V54.8159Z" fill="#006638"/>
    <path d="M47.9638 61.6679H34.2599V54.8159H47.9638V61.6679Z" fill="#006638"/>
    <path d="M54.8158 68.5199H47.9638V61.6679H54.8158V68.5199Z" fill="#006638"/>
    <path d="M68.5197 75.3718H54.8158V68.5199H68.5197V75.3718Z" fill="#006638"/>
    <path d="M68.5197 89.0758H75.3717V75.3718H68.5197V89.0758Z" fill="#006638"/>
    <path d="M68.5197 95.9277V89.0758H54.8158V95.9277H47.9638V102.78H54.8158V95.9277H68.5197Z" fill="#006638"/>
    <path d="M95.9276 47.964V34.26H89.0757V47.964H82.2237V61.6679H89.0757V75.3718H95.9276V61.6679H89.0757V47.964H95.9276Z" fill="#006638"/>
    <path d="M20.5559 68.5199H34.2599V75.3718H20.5559V68.5199Z" fill="#006638"/>
    <path d="M20.5559 68.5199H13.704V54.8159H20.5559V68.5199Z" fill="#006638"/>
    <path d="M34.2599 89.0758V75.3718H41.1119V89.0758H34.2599Z" fill="#006638"/>
    <path d="M34.2599 89.0758V95.9277H27.4079V89.0758H34.2599Z" fill="#006638"/>
    <path d="M75.3713 13.7041H89.0752V47.964H82.2232V61.6679H89.0752V89.0758H75.3713V75.3718H68.5193V68.5199H54.8154V61.6679H47.9634V54.8159H34.2594V41.112H41.1114V47.964H47.9634V41.112H54.8154V34.26H68.5193V27.408H75.3713V13.7041Z" fill="#5865F2"/>
    <path d="M75.3713 89.0758V95.9277H68.5193V89.0758H75.3713Z" fill="#5865F2"/>
    <path d="M20.5555 68.5199H13.7035V54.8159H6.85156V75.3718H13.7035V82.2238H20.5555V89.0758H34.2594V75.3718H20.5555V68.5199Z" fill="#5865F2"/>
    <path d="M89.0757 20.5562H95.9276V34.2601H89.0757V20.5562Z" fill="#2D35AD"/>
    <path d="M95.9276 75.3719H89.0757V89.0759H75.3717V95.9278H54.8158V102.78H75.3717V95.9278H89.0757V89.0759H95.9276V75.3719Z" fill="#2D35AD"/>
    <path d="M20.5559 82.2239H13.704V89.0759H20.5559V95.9278H27.4079V89.0759H20.5559V82.2239Z" fill="#2D35AD"/>
    <path d="M34.2598 0H75.3717V6.85197H34.2598V0Z" fill="black"/>
    <path d="M20.5559 13.7039V6.85197H34.2598V13.7039H20.5559Z" fill="black"/>
    <path d="M13.7039 20.5559V13.7039H20.5559V20.5559H13.7039Z" fill="black"/>
    <path d="M6.85197 34.2598V20.5559H13.7039V34.2598H6.85197Z" fill="black"/>
    <path d="M6.85197 75.3717H0V34.2598H6.85197V75.3717Z" fill="black"/>
    <path d="M13.7039 89.0756H6.85197V75.3717H13.7039V89.0756Z" fill="black"/>
    <path d="M20.5559 95.9276H13.7039V89.0756H20.5559V95.9276Z" fill="black"/>
    <path d="M34.2598 102.78H20.5559V95.9276H34.2598V102.78Z" fill="black"/>
    <path d="M75.3717 102.78V109.632H34.2598V102.78H75.3717Z" fill="black"/>
    <path d="M89.0756 95.9276H75.3717V102.78H89.0756V95.9276Z" fill="black"/>
    <path d="M95.9276 89.0756V95.9276H89.0756V89.0756H95.9276Z" fill="black"/>
    <path d="M102.78 75.3717V89.0756H95.9276V75.3717H102.78Z" fill="black"/>
    <path d="M102.78 34.2598H109.632V75.3717H102.78V34.2598Z" fill="black"/>
    <path d="M95.9276 20.5559H102.78V34.2598H95.9276V20.5559Z" fill="black"/>
    <path d="M89.0756 13.7039H95.9276V20.5559H89.0756V13.7039Z" fill="black"/>
    <path d="M89.0756 13.7039V6.85197H75.3717V13.7039H89.0756Z" fill="black"/>
</svg>