<svg viewBox="0 0 110 97" fill="none" xmlns="http://www.w3.org/2000/svg">
    <path d="M102.977 21.2894H96.155V14.467H89.3326V7.64453H62.0428V14.467H48.3979V7.64453H21.108V14.467H14.2856V21.2894H7.46313V55.4017H14.2856V62.2242V69.0466H21.108V75.8691H34.7529V82.6915H48.3979V89.514H62.0428V82.6915H75.6877V75.8691H89.3326V69.0466H96.155V55.4017H102.977V21.2894Z" fill="#FF4CD2"/>
    <path d="M96.1548 21.2896H102.977V55.4018H96.1548V21.2896Z" fill="#B3269C"/>
    <path d="M89.3324 69.0467V55.4018H96.1548V69.0467H89.3324Z" fill="#B3269C"/>
    <path d="M75.6875 75.8692V69.0467H89.3324V75.8692H75.6875Z" fill="#B3269C"/>
    <path d="M62.0426 82.6916V75.8692H75.6875V82.6916H62.0426Z" fill="#B3269C"/>
    <path d="M48.3977 82.6916H62.0426V89.5141H48.3977V82.6916Z" fill="#B3269C"/>
    <path d="M34.7528 75.8692V82.6916H48.3977V75.8692H34.7528Z" fill="#B3269C"/>
    <path d="M21.1079 69.0467V75.8692H34.7528V69.0467H21.1079Z" fill="#B3269C"/>
    <path d="M21.1079 69.0467H14.2854V55.4018H21.1079V69.0467Z" fill="#B3269C"/>
    <path fill-rule="evenodd" clip-rule="evenodd" d="M21.108 0.822266V7.64472H14.2855V14.4672H7.46308V21.2896H0.640625V55.4019H7.46308V69.0468H14.2855V75.8692H21.108V82.6917H34.7529V89.5142H48.3978V96.3366H62.0427V89.5142H75.6876V82.6917H89.3325V75.8692H96.155V69.0468H102.977V55.4019H109.8V21.2896H102.977V14.4672H96.155V7.64472H89.3325V0.822266H62.0427V7.64472H48.3978V0.822266H21.108ZM48.3978 7.64472V14.4672H62.0427V7.64472H89.3325V14.4672H96.155V21.2896H102.977V55.4019H96.155V69.0468H89.3325V75.8692H75.6876V82.6917H62.0427V89.5142H48.3978V82.6917H34.7529V75.8692H21.108V69.0468H14.2855V55.4019H7.46308V21.2896H14.2855V14.4672H21.108V7.64472H48.3978Z" fill="black"/>
    <path d="M75.6878 34.9348V28.1123H62.0429V34.9348H48.398V28.1123H34.7531V34.9348H27.9307V55.4021H34.7531V62.2246H48.4663V69.047H62.1111V62.2246H75.6878V55.4021H82.5103V34.9348H75.6878Z" fill="#FD99E9"/>
    <path d="M21.108 7.64453V14.467H14.2856V21.2894H7.46313V34.9343H14.2856V21.2894H21.108V28.1119H27.9305V21.2894H21.108V14.467H48.3979V21.2894H62.0428V14.467H89.3326V21.2894H96.155V14.467H89.3326V7.64453H62.0428V14.467H48.3979V7.64453H21.108Z" fill="white"/>
</svg>