<svg viewBox="0 0 110 110" fill="none" xmlns="http://www.w3.org/2000/svg">
    <path d="M102.758 13.6447V6.82227H61.8228V13.6447H20.8881V20.4672V40.9345V47.757H7.24316V81.8692H89.1126V47.757H102.758V40.9345V20.4672V13.6447Z" fill="#35ED7E"/>
    <path d="M102.758 34.1123H95.9354V47.7572H89.113V68.2246H82.2905V81.8695H89.113V68.2246H95.9354V47.7572H102.758V34.1123Z" fill="#108E4D"/>
    <path d="M20.8884 75.047V81.8695H34.5333V88.6919H75.4681V81.8695H34.5333V75.047H20.8884Z" fill="#108E4D"/>
    <path fill-rule="evenodd" clip-rule="evenodd" d="M102.758 0H61.823V6.82245H34.5332V13.6449H20.8883V20.4674H14.0658V34.1123H7.24335V47.7572H0.420898V81.8694H7.24335V102.337H14.0658V109.159H20.8883V102.337H27.7107V88.6919H34.5332V95.5144H75.4679V88.6919H89.1128V81.8694H95.9352V68.2245H102.758V47.7572H109.58V6.82245H102.758V0ZM102.758 6.82245V47.7572H95.9352V68.2245H89.1128V81.8694H75.4679V88.6919H34.5332V81.8694H20.8883V102.337H14.0658V81.8694H7.24335V47.7572H14.0658V34.1123H20.8883V20.4674H34.5332V13.6449H61.823V6.82245H102.758Z" fill="black"/>
    <path d="M102.758 6.82227V13.6447H61.8228V6.82227H102.758Z" fill="white"/>
    <path d="M34.533 20.4672V13.6447H61.8228V20.4672H34.533Z" fill="white"/>
    <path d="M34.533 27.2896V20.4672H20.8881V34.1121H14.0656V47.757H7.24316V61.4019H14.0656V47.757H20.8881V34.1121H27.7105V27.2896H34.533Z" fill="white"/>
    <path d="M34.533 27.2896H41.3554V34.1121H34.533V27.2896Z" fill="white"/>
    <path d="M75.4675 27.2897H82.29V20.4673H75.4675V27.2897Z" fill="#2D35AD"/>
    <path d="M68.6451 34.1122H75.4675V27.2897H68.6451V34.1122Z" fill="#2D35AD"/>
    <path d="M55.0002 40.9346V34.1122H68.6451V40.9346H55.0002Z" fill="#2D35AD"/>
    <path d="M41.3552 47.7571H55.0002V40.9346H41.3552V47.7571Z" fill="#2D35AD"/>
    <path d="M27.7103 54.5796H41.3552V47.7571H27.7103V54.5796Z" fill="#2D35AD"/>
    <path d="M20.8879 61.402H27.7103V54.5796H20.8879V61.402Z" fill="#2D35AD"/>
    <path d="M20.8879 61.402V102.337H14.0654V61.402H20.8879Z" fill="#2D35AD"/>
</svg>