<svg viewBox="0 0 109 109" fill="none" xmlns="http://www.w3.org/2000/svg">
    <path d="M34.0615 6.81152H40.874V47.6865H34.0615V6.81152Z" fill="#D93D09"/>
    <path d="M74.9365 20.4375V27.25H68.124V34.0625H61.3115V40.875H95.374V34.0625H88.5615V20.4375H74.9365Z" fill="#612CAF"/>
    <path d="M34.0615 6.81152H27.249V13.624H34.0615V6.81152Z" fill="white"/>
    <path d="M27.249 20.4365H20.4365V27.249H13.624V34.0615H6.81152V68.124H13.624V34.0615H20.4365V27.249H27.249V20.4365Z" fill="white"/>
    <path d="M47.6865 20.4365V27.249H61.3115V20.4365H47.6865Z" fill="white"/>
    <path d="M20.4365 27.25H27.249V47.6875H34.0615V54.5H40.874V47.6875H47.6865V74.9375H6.81152V68.125H13.624V34.0625H20.4365V27.25Z" fill="#A960FA"/>
    <path d="M54.499 27.25H47.6865V34.0625H54.499V27.25Z" fill="#A960FA"/>
    <path d="M61.3115 20.4375H68.124V27.25H61.3115V20.4375Z" fill="#793ECF"/>
    <path d="M54.499 34.0625V27.25H61.3115V34.0625H54.499Z" fill="#793ECF"/>
    <path d="M54.499 34.0625H47.6865V74.9375H6.81152V81.75H54.499V34.0625Z" fill="#793ECF"/>
    <path d="M61.3115 40.874H88.5615V47.6865H68.124V68.124H61.3115V40.874Z" fill="white"/>
    <path d="M88.5615 47.6865H81.749V54.499H74.9365V61.3115H68.124V68.124H61.3115V74.9365H68.124V68.124H74.9365V74.9365H81.749V81.749H88.5615V74.9365H81.749V68.124H74.9365V61.3115H81.749V54.499H88.5615V47.6865Z" fill="#161A8A"/>
    <path fill-rule="evenodd" clip-rule="evenodd" d="M68.124 47.6865V61.3115H74.9365V68.124H68.124V74.9365H74.9365V68.124H81.749V74.9365H88.5615V54.499H81.749V47.6865H68.124ZM81.749 61.3115V54.499H74.9365V61.3115H81.749Z" fill="#E6E8FF"/>
    <path d="M88.5615 40.874H95.374V81.749H88.5615V40.874Z" fill="#A0A9FA"/>
    <path d="M61.3115 74.9365V81.749H81.749V74.9365H61.3115Z" fill="#A0A9FA"/>
    <path d="M95.374 27.25H88.5615V34.0625H95.374V81.75H102.187V34.0625H95.374V27.25Z" fill="#3E1689"/>
    <path d="M47.6865 88.5625H40.874V102.188H47.6865V88.5625Z" fill="#FE9242"/>
    <path d="M54.501 88.5625H47.6885V102.188H54.501V88.5625Z" fill="#FE6E0D"/>
    <path d="M68.125 27.25V34.0625H61.3125V27.25H68.125Z" fill="black"/>
    <path d="M40.875 47.6875V54.5H34.0625V47.6875H40.875Z" fill="black"/>
    <path fill-rule="evenodd" clip-rule="evenodd" d="M20.4375 0V20.4375H13.625V27.25H6.8125V34.0625H0V81.75H6.8125V88.5625H34.0625V109H61.3125V88.5625H102.188V81.75H109V34.0625H102.188V27.25H95.375V20.4375H88.5625V13.625H47.6875V6.8125H40.875V0H20.4375ZM40.875 47.6875V6.8125H27.25V13.625H34.0625V47.6875H27.25V20.4375H20.4375V27.25H13.625V34.0625H6.8125V81.75H54.5V34.0625H61.3125V81.75H102.188V34.0625H95.375V27.25H88.5625V20.4375H74.9375V27.25H68.125V20.4375H47.6875V47.6875H40.875ZM54.5 88.5625H40.875V102.188H54.5V88.5625Z" fill="black"/>
</svg>