<svg viewBox="0 0 110 110" fill="none" xmlns="http://www.w3.org/2000/svg">
    <path d="M40.9348 14.4858H54.5797V34.9532H34.1123V21.3083H40.9348V28.1307H47.7572V21.3083H40.9348V14.4858Z" fill="#FF4CD2"/>
    <path d="M34.1121 7.66309V14.4855H20.4672V21.308H13.6447V34.9529H6.82227V55.4203H13.6447V34.9529H20.4672V21.308H34.1121V14.4855H81.8692V7.66309H34.1121Z" fill="white"/>
    <path d="M40.9345 21.308H47.757V28.1304H40.9345V21.308Z" fill="white"/>
    <path d="M75.0468 28.1304H81.8692V34.9529H75.0468V28.1304Z" fill="white"/>
    <path d="M20.4672 48.5978H27.2896V55.4203H20.4672V48.5978Z" fill="white"/>
    <path d="M61.4022 21.3081H54.5797V34.953H40.9348V41.7755H54.5797V34.953H61.4022V21.3081Z" fill="#B3269C"/>
    <path d="M75.0471 21.3081H88.692V41.7755H68.2246V28.1306H75.0471V34.953H81.8695V28.1306H75.0471V21.3081Z" fill="#28D270"/>
    <path d="M88.692 28.1304H95.5145V41.7753H88.692V28.1304Z" fill="#21BB63"/>
    <path d="M88.692 41.7753V48.5977H75.0471V41.7753H88.692Z" fill="#21BB63"/>
    <path d="M20.4677 41.7754H34.1126V62.2428H13.6453V48.5978H20.4677V55.4203H27.2902V48.5978H20.4677V41.7754Z" fill="#5865F2"/>
    <path d="M40.9351 48.5981H34.1127V62.2431H20.4678V69.0655H34.1127V62.2431H40.9351V48.5981Z" fill="#2D35AD"/>
    <path d="M40.9345 14.4858H34.1121V21.3083H20.4672V34.9532H13.6447V48.5981H20.4672V41.7757H34.1121V48.5981H40.9345V62.243H34.1121V69.0655H20.4672V62.243H13.6447V55.4206H6.82227V75.8879H13.6447V89.5328H20.4672V96.3553H40.9345V89.5328H34.1121V75.8879H40.9345V69.0655H54.5794V75.8879H61.4019V62.243H68.2243V55.4206H75.0468V41.7757H68.2243V28.1307H75.0468V21.3083H88.6917V28.1307H95.5142V21.3083H88.6917V14.4858H54.5794V21.3083H61.4019V34.9532H54.5794V41.7757H40.9345V34.9532H34.1121V21.3083H40.9345V14.4858Z" fill="#FFB676"/>
    <path d="M88.6917 41.7757H95.5142V55.4206H88.6917V41.7757Z" fill="#FFB676"/>
    <path d="M68.2243 82.7104H61.4019V89.5328H54.5794V96.3553H75.0468V89.5328H68.2243V82.7104Z" fill="#FFB676"/>
    <path d="M102.337 28.1304H95.5146V55.4202H88.6921V48.5977H75.0472V55.4202H68.2248V62.2426H61.4023V82.71H68.2248V89.5324H75.0472V96.3549H27.29V103.177H81.8697V89.5324H75.0472V82.71H68.2248V62.2426H75.0472V55.4202H88.6921V62.2426H102.337V28.1304Z" fill="#FE9242"/>
    <path d="M34.1123 0.84082H81.8694V7.66327H34.1123V0.84082Z" fill="black"/>
    <path d="M20.4674 14.4857V7.66327H34.1123V14.4857H20.4674Z" fill="black"/>
    <path d="M13.6449 21.3082V14.4857H20.4674V21.3082H13.6449Z" fill="black"/>
    <path d="M6.82245 34.9531V21.3082H13.6449V34.9531H6.82245Z" fill="black"/>
    <path d="M6.82245 75.8878H0V34.9531H6.82245V75.8878Z" fill="black"/>
    <path d="M13.6449 89.5327H6.82245V75.8878H13.6449V89.5327Z" fill="black"/>
    <path d="M20.4674 96.3552H13.6449V89.5327H20.4674V96.3552Z" fill="black"/>
    <path d="M27.2898 103.178H20.4674V96.3552H27.2898V103.178Z" fill="black"/>
    <path d="M81.8694 103.178V110H27.2898V103.178H81.8694Z" fill="black"/>
    <path d="M81.8694 103.178H88.6919V89.5327H81.8694V82.7103H75.047V62.2429H88.6919V69.0654H102.337V62.2429H109.159V28.1306H102.337V21.3082H95.5144V14.4857H88.6919V7.66327H81.8694V14.4857H88.6919V21.3082H95.5144V28.1306H102.337V62.2429H88.6919V55.4204H75.047V62.2429H68.2245V82.7103H75.047V89.5327H81.8694V103.178Z" fill="black"/>
    <path fill-rule="evenodd" clip-rule="evenodd" d="M40.9347 69.0654V75.8878H34.1123V89.5327H40.9347V96.3552H54.5796V89.5327H61.4021V75.8878H54.5796V69.0654H40.9347ZM54.5796 75.8878V89.5327H40.9347V75.8878H54.5796Z" fill="black"/>
</svg>