<svg viewBox="0 0 109 110" fill="none" xmlns="http://www.w3.org/2000/svg">
    <path d="M81.751 13.8037H95.376V20.6162H88.5635V27.4287H81.751V34.2412H74.9385V41.0537H68.126V47.8662H61.3135V54.6787H54.501V61.4912H47.6885V68.3037H34.0635V75.1162H27.251V88.7412H20.4385V54.6787H27.251V47.8662H34.0635V41.0537H47.6885V34.2412H61.3135V27.4287H68.126V20.6162H81.751V13.8037Z" fill="#A0A9FA"/>
    <path d="M74.9365 6.99121H102.187V20.6162H95.374V13.8037H74.9365V6.99121Z" fill="white"/>
    <path d="M54.499 20.6162V13.8037H74.9365V20.6162H54.499Z" fill="white"/>
    <path d="M34.0615 27.4287V20.6162H54.499V27.4287H34.0615Z" fill="white"/>
    <path d="M20.4365 34.2412V27.4287H34.0615V34.2412H20.4365Z" fill="white"/>
    <path d="M20.4365 34.2412V41.0537H13.624V47.8662H6.81152V34.2412H20.4365Z" fill="white"/>
    <path d="M88.5615 27.4287V20.6162H95.374V27.4287H88.5615Z" fill="white"/>
    <path d="M81.749 34.2412V27.4287H88.5615V34.2412H81.749Z" fill="white"/>
    <path d="M74.9365 41.0537V34.2412H81.749V41.0537H74.9365Z" fill="white"/>
    <path d="M68.124 47.8662V41.0537H74.9365V47.8662H68.124Z" fill="white"/>
    <path d="M61.3115 54.6787V47.8662H68.124V54.6787H61.3115Z" fill="white"/>
    <path d="M54.499 61.4912H61.3115V54.6787H54.499V61.4912Z" fill="white"/>
    <path d="M47.6865 68.3037V61.4912H54.499V68.3037H47.6865Z" fill="white"/>
    <path d="M47.6865 68.3037V75.1162H40.874V68.3037H47.6865Z" fill="white"/>
    <path d="M34.0635 68.3047H40.876V81.9297H34.0635V88.7422H27.251V75.1172H34.0635V68.3047Z" fill="#5865F2"/>
    <path d="M27.251 88.7422V95.5547H20.4385V88.7422H27.251Z" fill="#5865F2"/>
    <path d="M74.9365 13.8037H81.749V20.6162H74.9365V13.8037Z" fill="#E6E8FF"/>
    <path d="M54.499 20.6162H68.124V27.4287H61.3115V34.2412H47.6865V41.0537H34.0615V47.8662H27.249V54.6787H20.4365V47.8662H13.624V41.0537H20.4365V34.2412H34.0615V27.4287H54.499V20.6162Z" fill="#E6E8FF"/>
    <path d="M102.187 20.6162H95.374V27.4287H88.5615V34.2412H81.749V41.0537H74.9365V47.8662H68.124V54.6787H61.3115V61.4912H54.499V68.3037H47.6865V81.9287H54.499V88.7412H61.3115V95.5537H68.124V102.366H74.9365V81.9287H81.749V61.4912H88.5615V47.8662H95.374V34.2412H102.187V20.6162Z" fill="#E6E8FF"/>
    <path fill-rule="evenodd" clip-rule="evenodd" d="M74.9375 0.179688V6.99219H54.5V13.8047H34.0625V20.6172H20.4375V27.4297H6.8125V34.2422H0V47.8672H6.8125V54.6797H13.625V95.5547H20.4375V102.367H27.25V95.5547H34.0625V88.7422H40.875V81.9297H47.6875V88.7422H54.5V95.5547H61.3125V102.367H68.125V109.18H74.9375V102.367H81.75V81.9297H88.5625V61.4922H95.375V47.8672H102.188V34.2422H109V0.179688H74.9375ZM102.188 34.2422H95.375V47.8672H88.5625V61.4922H81.75V81.9297H74.9375V102.367H68.125V95.5547H61.3125V88.7422H54.5V81.9297H47.6875V75.1172H40.875V81.9297H34.0625V88.7422H27.25V95.5547H20.4375V47.8672H6.8125V34.2422H20.4375V27.4297H34.0625V20.6172H54.5V13.8047H74.9375V6.99219H102.188V34.2422Z" fill="black"/>
</svg>