<svg viewBox="0 0 110 110" fill="none" xmlns="http://www.w3.org/2000/svg">
    <path d="M75.8876 6.82227H69.0651V13.6447H62.2427V20.4672H69.0651V13.6447H75.8876V6.82227Z" fill="#35ED7E"/>
    <path d="M82.7095 6.82227H75.887V13.6447H69.0646V20.4672H55.4197V27.2896H69.0646V20.4672H75.887V13.6447H82.7095V6.82227Z" fill="#108E4D"/>
    <path d="M62.2422 6.82227H69.0647V13.6447H62.2422V6.82227Z" fill="white"/>
    <path d="M62.2422 13.6447V20.4672H55.4198V13.6447H62.2422Z" fill="white"/>
    <path d="M28.13 13.6447H48.5973V20.4672H28.13V13.6447Z" fill="white"/>
    <path d="M21.3075 27.2896V20.4672H28.13V27.2896H21.3075Z" fill="white"/>
    <path d="M14.4851 34.1121V27.2896H21.3075V34.1121H14.4851Z" fill="white"/>
    <path d="M14.4851 34.1121H7.6626V61.4019H14.4851V34.1121Z" fill="white"/>
    <path d="M21.3075 40.9345H34.9524V54.5794H21.3075V40.9345Z" fill="white"/>
    <path fill-rule="evenodd" clip-rule="evenodd" d="M34.9524 20.4673H28.13V27.2897H21.3075V34.1122H14.4851V61.402H7.6626V68.2245H21.3075V75.0469H34.9524V81.8694H69.0647V75.0469H82.7096V81.8694H96.3545V27.2897H89.532V20.4673H75.8871V27.2897H69.0647V34.1122H41.7749V27.2897H48.5973V20.4673H41.7749V27.2897H34.9524V20.4673ZM34.9524 54.5796H21.3075V40.9346H34.9524V54.5796Z" fill="#FF4CD2"/>
    <path d="M103.177 34.1123H96.3545V81.8695H103.177V34.1123Z" fill="#8C1381"/>
    <path d="M7.6626 68.2246H21.3075V75.0471H34.9524V81.8695H69.0647V75.0471H82.7096V81.8695H89.532V88.692H82.7096V95.5144H21.3075V88.692H14.4851V81.8695H7.6626V68.2246Z" fill="#F3BA2F"/>
    <path d="M89.5325 81.8696H96.3549V88.6921H89.5325V81.8696Z" fill="#FE6E0D"/>
    <path d="M82.71 95.5145V88.6921H89.5325V95.5145H82.71Z" fill="#FE6E0D"/>
    <path d="M82.71 95.5145V102.337H28.1304V95.5145H82.71Z" fill="#FE6E0D"/>
    <path d="M41.7751 27.2898V20.4674H34.9526V27.2898H41.7751Z" fill="black"/>
    <path fill-rule="evenodd" clip-rule="evenodd" d="M55.42 0H48.5975V6.82245H28.1301V13.6449H21.3077V20.4674H14.4852V27.2898H7.66279V34.1123H0.840332V81.8694H7.66279V88.6919H14.4852V95.5144H21.3077V102.337H28.1301V109.159H82.7098V102.337H89.5322V95.5144H96.3547V88.6919H103.177V81.8694H110V34.1123H103.177V27.2898H96.3547V20.4674H89.5322V6.82245H82.7098V0H62.2424V6.82245H55.42V0ZM69.0649 27.2898H55.42V13.6449H62.2424V6.82245H82.7098V13.6449H75.8873V20.4674H69.0649V27.2898ZM41.7751 27.2898H48.5975V13.6449H28.1301V20.4674H21.3077V27.2898H14.4852V34.1123H7.66279V81.8694H14.4852V88.6919H21.3077V95.5144H28.1301V102.337H82.7098V95.5144H89.5322V88.6919H96.3547V81.8694H103.177V34.1123H96.3547V27.2898H89.5322V20.4674H75.8873V27.2898H69.0649V34.1123H41.7751V27.2898Z" fill="black"/>
</svg>