<svg viewBox="0 0 80 80" fill="none" xmlns="http://www.w3.org/2000/svg">
<path fill-rule="evenodd" clip-rule="evenodd" d="M33.3335 13.3333C33.3335 15.1014 34.0359 16.7971 35.2861 18.0473C36.5364 19.2976 38.2321 20 40.0002 20C41.7683 20 43.464 19.2976 44.7142 18.0473C45.9644 16.7971 46.6668 15.1014 46.6668 13.3333C46.6668 11.5652 45.9644 9.86949 44.7142 8.61925C43.464 7.369 41.7683 6.66663 40.0002 6.66663C38.2321 6.66663 36.5364 7.369 35.2861 8.61925C34.0359 9.86949 33.3335 11.5652 33.3335 13.3333ZM40.0002 46.6666C38.2321 46.6666 36.5364 45.9642 35.2861 44.714C34.0359 43.4638 33.3335 41.7681 33.3335 40C33.3335 38.2318 34.0359 36.5362 35.2861 35.2859C36.5364 34.0357 38.2321 33.3333 40.0002 33.3333C41.7683 33.3333 43.464 34.0357 44.7142 35.2859C45.9644 36.5362 46.6668 38.2318 46.6668 40C46.6668 41.7681 45.9644 43.4638 44.7142 44.714C43.464 45.9642 41.7683 46.6666 40.0002 46.6666ZM40.0002 73.3333C38.2321 73.3333 36.5364 72.6309 35.2861 71.3807C34.0359 70.1304 33.3335 68.4347 33.3335 66.6666C33.3335 64.8985 34.0359 63.2028 35.2861 61.9526C36.5364 60.7023 38.2321 60 40.0002 60C41.7683 60 43.464 60.7023 44.7142 61.9526C45.9644 63.2028 46.6668 64.8985 46.6668 66.6666C46.6668 68.4347 45.9644 70.1304 44.7142 71.3807C43.464 72.6309 41.7683 73.3333 40.0002 73.3333Z" fill="currentColor"/>
</svg>
