<svg viewBox="0 0 80 80" fill="none" xmlns="http://www.w3.org/2000/svg">
    <path fill-rule="evenodd" clip-rule="evenodd" d="M36.6667 73.3333C46.3913 73.3333 55.7176 69.4703 62.5939 62.5939C69.4703 55.7176 73.3333 46.3913 73.3333 36.6667C73.3333 26.9421 69.4703 17.6158 62.5939 10.7394C55.7176 3.86309 46.3913 0 36.6667 0C26.9421 0 17.6158 3.86309 10.7394 10.7394C3.86309 17.6158 0 26.9421 0 36.6667C0 46.3913 3.86309 55.7176 10.7394 62.5939C17.6158 69.4703 26.9421 73.3333 36.6667 73.3333ZM18.3333 40C19.6594 40 20.9312 39.4732 21.8689 38.5355C22.8066 37.5979 23.3333 36.3261 23.3333 35C23.3333 33.6739 22.8066 32.4021 21.8689 31.4645C20.9312 30.5268 19.6594 30 18.3333 30C17.0073 30 15.7355 30.5268 14.7978 31.4645C13.8601 32.4021 13.3333 33.6739 13.3333 35C13.3333 36.3261 13.8601 37.5979 14.7978 38.5355C15.7355 39.4732 17.0073 40 18.3333 40ZM55 40C56.3261 40 57.5979 39.4732 58.5355 38.5355C59.4732 37.5979 60 36.3261 60 35C60 33.6739 59.4732 32.4021 58.5355 31.4645C57.5979 30.5268 56.3261 30 55 30C53.6739 30 52.4022 30.5268 51.4645 31.4645C50.5268 32.4021 50 33.6739 50 35C50 36.3261 50.5268 37.5979 51.4645 38.5355C52.4022 39.4732 53.6739 40 55 40ZM22.3333 43.9C22.6965 43.6543 23.1045 43.4827 23.5341 43.395C23.9637 43.3072 24.4063 43.3051 24.8367 43.3887C25.2671 43.4723 25.6768 43.64 26.0423 43.8822C26.4078 44.1243 26.7219 44.4362 26.9667 44.8C28.0326 46.3951 29.4755 47.7026 31.1674 48.6069C32.8594 49.5112 34.7482 49.9843 36.6667 49.9843C38.5851 49.9843 40.474 49.5112 42.1659 48.6069C43.8579 47.7026 45.3007 46.3951 46.3667 44.8C46.8617 44.0662 47.628 43.5592 48.4969 43.3904C49.3659 43.2216 50.2662 43.4049 51 43.9C51.7338 44.3951 52.2408 45.1614 52.4096 46.0303C52.5784 46.8992 52.3951 47.7996 51.9 48.5333C50.2242 51.0359 47.9577 53.087 45.3008 54.5054C42.6439 55.9238 39.6785 56.6659 36.6667 56.6659C33.6549 56.6659 30.6894 55.9238 28.0325 54.5054C25.3757 53.087 23.1091 51.0359 21.4333 48.5333C21.1824 48.169 21.0065 47.7584 20.9159 47.3254C20.8253 46.8925 20.8218 46.4458 20.9056 46.0114C20.9893 45.5771 21.1587 45.1637 21.4039 44.7955C21.649 44.4273 21.9649 44.1115 22.3333 43.8667V43.9Z" fill="currentColor"/>
</svg>
