<svg width="80" height="80" viewBox="0 0 80 80" fill="none" xmlns="http://www.w3.org/2000/svg">
    <mask id="mask0_3_2392" style="mask-type:luminance" maskUnits="userSpaceOnUse" x="0" y="0" width="80" height="80">
        <path d="M80 0H0V80H80V0Z" fill="white"/>
    </mask>
    <g mask="url(#mask0_3_2392)">
        <mask id="mask1_3_2392" style="mask-type:luminance" maskUnits="userSpaceOnUse" x="0" y="0" width="80" height="80">
            <path d="M0 0H80V80H0V0Z" fill="white"/>
        </mask>
        <g mask="url(#mask1_3_2392)">
            <path d="M35.1933 3.64668C33.6833 3.84334 32.8433 5.41668 33.0733 6.92334C33.6666 10.81 32.45 14.2633 29.7966 15.3633C27.1433 16.4633 23.84 14.8833 21.5133 11.7167C20.61 10.49 18.9 9.97001 17.6933 10.8967C15.14 12.8567 12.8566 15.14 10.8966 17.6933C9.96998 18.9 10.49 20.61 11.7166 21.5133C14.8833 23.84 16.4633 27.1433 15.3633 29.7967C14.2633 32.45 10.81 33.6667 6.92331 33.0733C5.41665 32.8433 3.84331 33.6833 3.64665 35.1933C3.43998 36.7667 3.33331 38.37 3.33331 40C3.33331 41.63 3.43998 43.2333 3.64665 44.8067C3.84331 46.3167 5.41665 47.1567 6.92331 46.9267C10.81 46.3333 14.2633 47.55 15.3633 50.2033C16.4633 52.8567 14.8833 56.1567 11.7166 58.4867C10.49 59.39 9.96998 61.0967 10.8966 62.3067C12.8566 64.86 15.14 67.1433 17.6933 69.1033C18.9 70.03 20.61 69.51 21.5133 68.2833C23.84 65.1167 27.1433 63.5367 29.7966 64.6367C32.45 65.7367 33.6666 69.19 33.0733 73.0767C32.8433 74.5833 33.6833 76.1567 35.1933 76.3533C36.7666 76.56 38.37 76.6667 40 76.6667C41.63 76.6667 43.2333 76.56 44.8066 76.3533C46.3167 76.1567 47.1567 74.5833 46.9266 73.0767C46.3333 69.19 47.5533 65.7367 50.2066 64.6367C52.86 63.5367 56.16 65.1167 58.4866 68.2833C59.39 69.51 61.0966 70.03 62.3066 69.1033C64.86 67.1433 67.1433 64.86 69.1033 62.3067C70.03 61.0967 69.51 59.39 68.2833 58.4867C65.1167 56.16 63.5366 52.8567 64.6366 50.2033C65.7366 47.55 69.19 46.3333 73.0767 46.9267C74.5833 47.1567 76.1566 46.3167 76.3533 44.8067C76.56 43.2333 76.6666 41.63 76.6666 40C76.6666 38.37 76.56 36.7667 76.3533 35.1933C76.1566 33.6833 74.5833 32.8433 73.0767 33.0733C69.19 33.6667 65.7366 32.45 64.6366 29.7967C63.5366 27.1433 65.1167 23.84 68.2833 21.5133C69.51 20.61 70.03 18.9 69.1033 17.6933C67.1433 15.14 64.86 12.8567 62.3066 10.8967C61.0966 9.97001 59.3933 10.49 58.49 11.7167C56.1633 14.8833 52.86 16.4633 50.2066 15.3633C47.5533 14.2633 46.3367 10.81 46.93 6.92334C47.16 5.41668 46.3167 3.84334 44.8066 3.64668C43.2333 3.44001 41.63 3.33334 40 3.33334C38.37 3.33334 36.7666 3.44001 35.1933 3.64668ZM53.3333 40C53.3333 47.3633 47.3633 53.3333 40 53.3333C32.6366 53.3333 26.6666 47.3633 26.6666 40C26.6666 32.6367 32.6366 26.6667 40 26.6667C47.3633 26.6667 53.3333 32.6367 53.3333 40Z" fill="currentColor"/>
        </g>
    </g>
</svg>
