<svg viewBox="-10 -10 80 80" fill="none" xmlns="http://www.w3.org/2000/svg">
    <path fill-rule="evenodd" clip-rule="evenodd" d="M10 0C7.34784 0 4.8043 1.05357 2.92893 2.92893C1.05357 4.8043 0 7.34784 0 10V56.6667C0 59.3188 1.05357 61.8624 2.92893 63.7377C4.8043 65.6131 7.34784 66.6667 10 66.6667H56.6667C59.3188 66.6667 61.8624 65.6131 63.7377 63.7377C65.6131 61.8624 66.6667 59.3188 66.6667 56.6667V10C66.6667 7.34784 65.6131 4.8043 63.7377 2.92893C61.8624 1.05357 59.3188 0 56.6667 0H10ZM17.2667 46.2333C15.299 46.2648 13.3685 45.695 11.7333 44.6C10.0916 43.4797 8.79795 41.9203 8 40.1C7.07701 37.9657 6.62235 35.6583 6.66667 33.3333C6.66667 30.8333 7.13333 28.6 8.06667 26.6667C9.03333 24.7 10.4 23.2 12.2 22.1C14.171 20.9544 16.4209 20.3775 18.7 20.4333C20.8333 20.4333 22.7333 20.9 24.4333 21.7667C26.1 22.7 27.4 24 28.2667 25.6333L24.2 28.5667C23.7194 27.5287 22.9459 26.6539 21.9747 26.0499C21.0034 25.4458 19.8768 25.1388 18.7333 25.1667C16.5333 25.1667 14.8333 25.9 13.6667 27.3333C12.39 29.0631 11.7644 31.1877 11.9 33.3333C11.9 35.9333 12.5 37.9667 13.6667 39.3667C14.8333 40.7667 16.5333 41.5 18.7333 41.5C19.7333 41.5 20.6333 41.3 21.4333 40.9667C22.2667 40.5667 22.9333 40.0667 23.3667 39.4V36.3H17.6667V31.6333H28.4667V45.7333H24.2333L23.5667 43.3667C22.1333 45.2667 20.0333 46.2333 17.2667 46.2333ZM38.4 45.7333H33.1667V20.9333H38.4V45.7333ZM43.4333 45.7333H48.6667V36.3H57.8667V31.5667H48.6667V25.6667H60V20.9333H43.4333V45.7333Z" fill="currentColor"/>
</svg>
