<svg viewBox="0 0 80 80" fill="none" xmlns="http://www.w3.org/2000/svg">
    <mask id="mask0_19_2086" style="mask-type:luminance" maskUnits="userSpaceOnUse" x="0" y="0" width="80" height="80">
        <path d="M80 0H0V80H80V0Z" fill="white"/>
    </mask>

    <g mask="url(#mask0_19_2086)">
        <mask id="mask1_19_2086" style="mask-type:luminance" maskUnits="userSpaceOnUse" x="0" y="0" width="80" height="80">
            <path d="M0 0H80V80H0V0Z" fill="white"/>
        </mask>

        <g mask="url(#mask1_19_2086)">
            <mask id="mask2_19_2086" style="mask-type:luminance" maskUnits="userSpaceOnUse" x="-30" y="-30" width="140" height="140">
                <path d="M-29.3333 -29.3333H109.333V109.333H-29.3333V-29.3333Z" fill="white"/>
            </mask>

            <g mask="url(#mask2_19_2086)">
                <mask id="mask3_19_2086" style="mask-type:luminance" maskUnits="userSpaceOnUse" x="-47" y="0" width="127" height="127">
                    <path d="M80 0H0V80H80V0Z" fill="white"/>
                    <path d="M-20.0122 84.8998L-46.8474 111.795L-39.9605 118.637L-32.4284 126.12L-5.59319 99.2249C-5.59319 99.2249 3.90187 89.9675 -3.41917 83.0026C-11.3067 75.4988 -20.0122 84.8998 -20.0122 84.8998Z" fill="black"/>
                </mask>

                <g mask="url(#mask3_19_2086)">
                
                    <mask id="mask4_19_2086" style="mask-type:luminance" maskUnits="userSpaceOnUse" x="-30" y="-30" width="140" height="140">
                        <path d="M-29.3333 -29.3333H109.333V109.333H-29.3333V-29.3333Z" fill="white"/>
                    </mask>
                    
                    <g mask="url(#mask4_19_2086)">
                        <path d="M12.2667 40.0002C12.2667 24.6844 24.6843 12.2668 40 12.2668C55.3157 12.2668 67.7333 24.6844 67.7333 40.0002C67.7333 42.4026 67.5739 44.7148 67.2272 46.9335H60.8C57.5275 46.9335 54.4456 48.4762 52.48 51.0935L45.6403 60.2108C44.0144 62.381 43.5915 65.2236 44.5205 67.7716C46.5485 73.3495 53.4749 76.6636 59.0043 72.6562C70.6419 64.2287 74.6667 52.7159 74.6667 40.0002C74.6667 20.8538 59.1464 5.3335 40 5.3335C20.8536 5.3335 5.33333 20.8538 5.33333 40.0002C5.33333 52.7159 9.35813 64.2287 20.9957 72.6562C26.5251 76.6636 33.4515 73.3495 35.4795 67.7716C36.4085 65.2236 35.9856 62.381 34.3597 60.2108L27.52 51.0935C25.5544 48.4762 22.4725 46.9335 19.2 46.9335H12.7728C12.4261 44.7148 12.2667 42.4026 12.2667 40.0002Z" fill="currentColor"/>
                    </g>
                </g>
            </g>
        </g>
    </g>
</svg>
