<svg viewBox="0 0 91 91" fill="none" xmlns="http://www.w3.org/2000/svg">
<mask id="mask0_19_2135" style="mask-type:luminance" maskUnits="userSpaceOnUse" x="0" y="0" width="91" height="91">
<path d="M84.0182 6.04395V86.0049H4.05725V6.04395H84.0182Z" fill="white" stroke="currentColor" stroke-width="0.04"/>
<path d="M75.8613 1.69238C79.6478 -0.142578 84.3162 -1.12036 87.8721 2.28223C89.6626 3.99561 90.289 5.99023 90.2227 8.01855C90.1562 10.0477 89.3957 12.1118 88.4102 13.9629C87.4247 15.8138 86.2156 17.451 85.252 18.625C84.7703 19.2118 84.3495 19.6824 84.0498 20.0068C83.9 20.169 83.7805 20.2949 83.6982 20.3799C83.6571 20.4224 83.625 20.4549 83.6035 20.4766L83.5713 20.5088V20.5098L19.0186 85.5381H19.0176L19.0166 85.54L18.9922 85.5645C18.9751 85.582 18.9496 85.6082 18.916 85.6416C18.8487 85.7086 18.7487 85.8056 18.6191 85.9268C18.3596 86.1694 17.9802 86.508 17.502 86.8906C16.5453 87.6559 15.1922 88.5981 13.6064 89.3057C12.0207 90.0132 10.2028 90.4855 8.31641 90.3135C6.43049 90.1415 4.47417 89.3254 2.61035 87.4521C-0.804595 84.0197 -0.302354 79.9702 1.05664 76.7744C1.73603 75.1768 2.629 73.7935 3.35254 72.8096C3.7143 72.3176 4.03391 71.9252 4.2627 71.6562C4.37709 71.5218 4.46909 71.4177 4.53223 71.3477C4.56364 71.3128 4.58803 71.2864 4.60449 71.2686C4.61275 71.2596 4.61884 71.2525 4.62305 71.248L4.62891 71.2422L69.1816 6.21387L69.1826 6.21191C69.184 6.21063 69.1867 6.20861 69.1895 6.20605C69.195 6.20097 69.2031 6.1934 69.2139 6.18359C69.2359 6.16354 69.2694 6.1341 69.3125 6.0957C69.399 6.01869 69.5271 5.9059 69.6924 5.76562C70.0229 5.48508 70.5032 5.09207 71.1016 4.6416C72.2986 3.74037 73.9688 2.60953 75.8613 1.69238Z" fill="black" stroke="currentColor" stroke-width="0.0416"/>
</mask>
<g mask="url(#mask0_19_2135)">
<path d="M44.038 11.8774C62.8971 11.8776 78.1845 27.1658 78.1845 46.0249C78.1844 58.4201 74.3313 69.598 63.2695 77.8677L62.7372 78.2593C57.5497 82.019 50.9844 78.9474 49.0468 73.6187V73.6177C48.1782 71.2353 48.5732 68.5771 50.0937 66.5474L56.9335 57.4302C58.8011 54.9434 61.7292 53.478 64.8378 53.478H71.7099L71.7783 53.0386C72.1296 50.7897 72.2909 48.45 72.291 46.0249C72.291 30.4221 59.6408 17.7712 44.038 17.771C28.4351 17.771 15.7841 30.422 15.7841 46.0249C15.7841 48.45 15.9454 50.7897 16.2968 53.0386L16.3652 53.478H23.2372C26.3458 53.478 29.2739 54.9435 31.1415 57.4302L37.9814 66.5474C39.502 68.5772 39.8969 71.2352 39.0283 73.6177V73.6187C37.0906 78.9473 30.5263 82.019 25.3388 78.2593C13.8679 69.9525 9.89063 58.6169 9.89056 46.0249C9.89056 27.1657 25.1788 11.8774 44.038 11.8774Z" fill="currentColor" stroke="currentColor" stroke-width="1.04"/>
</g>
<path d="M10.7044 79.3578L77.3711 12.6912" stroke="currentColor" stroke-width="4" stroke-linecap="round"/>
</svg>
