<svg viewBox="0 0 80 80" fill="none" xmlns="http://www.w3.org/2000/svg">
<path d="M40.0001 73.3333C47.3968 73.3275 54.5816 70.8617 60.4229 66.324C66.2643 61.7863 70.4305 55.4346 72.2654 48.2691C74.1003 41.1035 73.4998 33.5312 70.5583 26.7444C67.6169 19.9577 62.5016 14.3421 56.018 10.7819C49.5345 7.22165 42.0509 5.91908 34.7456 7.07926C27.4404 8.23945 20.7286 11.7965 15.6671 17.1903C10.6055 22.584 7.48179 29.5081 6.78773 36.8723C6.09367 44.2364 7.86873 51.6222 11.8334 57.8667C12.2667 58.5 12.2001 59.3333 11.7001 59.9L4.83339 67.8C4.4106 68.2812 4.13544 68.8741 4.04083 69.5077C3.94622 70.1413 4.03617 70.7887 4.29993 71.3724C4.56368 71.9562 4.99006 72.4516 5.52804 72.7994C6.06601 73.1471 6.6928 73.3325 7.33339 73.3333H40.0001Z" fill="currentColor"/>
</svg>
