<svg viewBox="0 0 87 87" fill="none" xmlns="http://www.w3.org/2000/svg">
    <mask id="mask0_19_2038" style="mask-type:luminance" maskUnits="userSpaceOnUse" x="0" y="0" width="87" height="87">
        <path d="M82.344 4.25439H2.34395V84.2544H82.344V4.25439Z" fill="white"/>
        <path d="M66.5066 5.96047L4.43689 68.4877C4.43689 68.4877 -4.08805 77.4853 2.49555 84.1026C9.67729 91.321 18.3013 82.2618 18.3013 82.2618L80.371 19.7346C80.371 19.7346 91.4106 8.78767 84.506 2.18047C77.6481 -4.38193 66.5066 5.96047 66.5066 5.96047Z" fill="black"/>
        <path d="M68.744 31.5876H61.2773V41.4543H68.744V31.5876Z" fill="white"/>
    </mask>

    <g mask="url(#mask0_19_2038)">
        <path d="M55.6773 24.1209C55.6773 16.7576 49.7073 10.7876 42.344 10.7876C34.9806 10.7876 29.0106 16.7576 29.0106 24.1209V37.3209C29.0106 44.6843 34.9806 50.6543 42.344 50.6543C49.7073 50.6543 55.6773 44.6843 55.6773 37.3209V24.1209Z" fill="currentColor"/>
        <path d="M65.6773 37.321C65.6773 50.2077 55.2306 60.6544 42.344 60.6544C29.4573 60.6544 19.0106 50.2077 19.0106 37.321" stroke="currentColor" stroke-width="4" stroke-linecap="round"/>
        <path d="M45.6773 60.6542C45.6773 59.7342 44.9306 58.9875 44.0106 58.9875H40.6773C39.7573 58.9875 39.0106 59.7342 39.0106 60.6542V73.9875C39.0106 74.9075 39.7573 75.6542 40.6773 75.6542H44.0106C44.9306 75.6542 45.6773 74.9075 45.6773 73.9875V60.6542Z" fill="currentColor"/>
        <path d="M32.344 70.6543C30.504 70.6543 29.0106 72.1476 29.0106 73.9876C29.0106 75.8276 30.504 77.321 32.344 77.321H52.344C54.184 77.321 55.6773 75.8276 55.6773 73.9876C55.6773 72.1476 54.184 70.6543 52.344 70.6543H32.344Z" fill="currentColor"/>
    </g>
    <path d="M9.01062 77.5876L75.6773 10.9209" stroke="currentColor" stroke-width="4" stroke-linecap="round"/>
</svg>
