<svg viewBox="0 0 80 80" xmlns="http://www.w3.org/2000/svg">
    <mask id="mask0_19_1988" style="mask-type:luminance" maskUnits="userSpaceOnUse" x="0" y="0" width="80" height="80">
        <path d="M80 0H0V80H80V0Z" fill="white"/>
    </mask>

    <g mask="url(#mask0_19_1988)">
        <path d="M53.3333 19.8668C53.3333 12.5034 47.3633 6.53345 40 6.53345C32.6366 6.53345 26.6666 12.5034 26.6666 19.8668V33.0668C26.6666 40.4301 32.6366 46.4001 40 46.4001C47.3633 46.4001 53.3333 40.4301 53.3333 33.0668V19.8668Z" fill="currentColor"/>
        <path d="M63.3333 33.0668C63.3333 45.9534 52.8866 56.4001 40 56.4001C27.1133 56.4001 16.6666 45.9534 16.6666 33.0668" stroke="currentColor" stroke-width="4" stroke-linecap="round" fill="none"/>
        <path d="M43.3333 56.4001C43.3333 55.4801 42.5866 54.7334 41.6666 54.7334H38.3333C37.4133 54.7334 36.6666 55.4801 36.6666 56.4001V69.7334C36.6666 70.6534 37.4133 71.4001 38.3333 71.4001H41.6666C42.5866 71.4001 43.3333 70.6534 43.3333 69.7334V56.4001Z" fill="currentColor"/>
        <path d="M30 66.4001C28.16 66.4001 26.6666 67.8935 26.6666 69.7335C26.6666 71.5735 28.16 73.0668 30 73.0668H50C51.84 73.0668 53.3333 71.5735 53.3333 69.7335C53.3333 67.8935 51.84 66.4001 50 66.4001H30Z" fill="currentColor"/>
    </g>
</svg>
