<svg viewBox="0 0 80 80" fill="none" xmlns="http://www.w3.org/2000/svg">
    <path fill-rule="evenodd" clip-rule="evenodd" d="M20 6.66675H60C63.5362 6.66675 66.9276 8.07151 69.4281 10.572C71.9286 13.0724 73.3334 16.4638 73.3334 20V45C73.3334 45.4421 73.1578 45.866 72.8452 46.1786C72.5326 46.4911 72.1087 46.6667 71.6667 46.6667H63.3334C58.9131 46.6667 54.6738 48.4227 51.5482 51.5483C48.4226 54.6739 46.6667 58.9131 46.6667 63.3334V71.6667C46.6667 72.1087 46.4911 72.5327 46.1785 72.8452C45.866 73.1578 45.442 73.3334 45 73.3334H20C16.4638 73.3334 13.0724 71.9286 10.5719 69.4281C8.07145 66.9276 6.66669 63.5363 6.66669 60V20C6.66669 16.4638 8.07145 13.0724 10.5719 10.572C13.0724 8.07151 16.4638 6.66675 20 6.66675ZM21.6667 33.3334C22.9928 33.3334 24.2645 32.8066 25.2022 31.8689C26.1399 30.9312 26.6667 29.6595 26.6667 28.3334C26.6667 27.0073 26.1399 25.7355 25.2022 24.7978C24.2645 23.8602 22.9928 23.3334 21.6667 23.3334C20.3406 23.3334 19.0688 23.8602 18.1312 24.7978C17.1935 25.7355 16.6667 27.0073 16.6667 28.3334C16.6667 29.6595 17.1935 30.9312 18.1312 31.8689C19.0688 32.8066 20.3406 33.3334 21.6667 33.3334ZM63.3334 28.3334C63.3334 29.6595 62.8066 30.9312 61.8689 31.8689C60.9312 32.8066 59.6594 33.3334 58.3334 33.3334C57.0073 33.3334 55.7355 32.8066 54.7978 31.8689C53.8601 30.9312 53.3334 29.6595 53.3334 28.3334C53.3334 27.0073 53.8601 25.7355 54.7978 24.7978C55.7355 23.8602 57.0073 23.3334 58.3334 23.3334C59.6594 23.3334 60.9312 23.8602 61.8689 24.7978C62.8066 25.7355 63.3334 27.0073 63.3334 28.3334ZM30.3 38.1334C29.8049 37.3996 29.0387 36.8926 28.1698 36.7238C27.3008 36.555 26.4005 36.7383 25.6667 37.2334C24.9329 37.7284 24.4259 38.4947 24.2571 39.3636C24.0883 40.2326 24.2716 41.1329 24.7667 41.8667C26.4425 44.3692 28.709 46.4204 31.3659 47.8388C34.0228 49.2572 36.9882 49.9992 40 49.9992C43.0118 49.9992 45.9772 49.2572 48.6341 47.8388C51.291 46.4204 53.5576 44.3692 55.2334 41.8667C55.4785 41.5034 55.6497 41.0953 55.7371 40.6659C55.8245 40.2364 55.8265 39.7939 55.7429 39.3636C55.6594 38.9334 55.4919 38.5238 55.25 38.1583C55.0082 37.7928 54.6967 37.4785 54.3334 37.2334C53.97 36.9882 53.562 36.8171 53.1325 36.7296C52.703 36.6422 52.2605 36.6402 51.8303 36.7238C51.4 36.8074 50.9905 36.9748 50.625 37.2167C50.2594 37.4586 49.9452 37.77 49.7 38.1334C48.6341 39.7284 47.1912 41.036 45.4993 41.9403C43.8073 42.8446 41.9185 43.3177 40 43.3177C38.0816 43.3177 36.1927 42.8446 34.5008 41.9403C32.8088 41.036 31.366 39.7284 30.3 38.1334Z" fill="currentColor"/>
    <path d="M72.2 53.3335C72.3 53.3335 72.3667 53.4335 72.3334 53.5335C71.8471 54.5468 71.1935 55.4708 70.4 56.2668L56.2667 70.4002C55.4707 71.1936 54.5466 71.8472 53.5333 72.3335C53.5117 72.3463 53.487 72.3527 53.4618 72.3521C53.4367 72.3514 53.4123 72.3437 53.3914 72.3297C53.3705 72.3158 53.354 72.2962 53.3437 72.2733C53.3334 72.2504 53.3298 72.225 53.3334 72.2002V63.3335C53.3334 60.6813 54.3869 58.1378 56.2623 56.2624C58.1376 54.3871 60.6812 53.3335 63.3334 53.3335H72.2Z" fill="currentColor"/>
</svg>
