<svg viewBox="0 0 80 80" fill="none" xmlns="http://www.w3.org/2000/svg">
    <mask id="mask0_19_1915" style="mask-type:luminance" maskUnits="userSpaceOnUse" x="-3" y="-5" width="88" height="88">
        <path d="M80 0H0V80H80V0Z" fill="white"/>
        <path d="M64.1627 1.70619L2.09292 64.2334C2.09292 64.2334 -6.43201 73.231 0.151587 79.8483C7.33332 87.0667 15.9573 78.0075 15.9573 78.0075L78.0271 15.4803C78.0271 15.4803 89.0667 4.53339 82.162 -2.07381C75.3041 -8.63621 64.1627 1.70619 64.1627 1.70619Z" fill="black"/>
    </mask>

    <g mask="url(#mask0_19_1915)">
        <path d="M13.3333 13.3334H27.4866H50C55.5233 13.3334 60 17.81 60 23.3334V56.6667C60 62.19 55.5233 66.6667 50 66.6667H32.1066H13.3333C7.80998 66.6667 3.33331 62.19 3.33331 56.6667V23.3334C3.33331 17.81 7.80998 13.3334 13.3333 13.3334Z" fill="currentColor"/>
        <path d="M60 30.3934C60 29.13 60.7133 27.9767 61.8433 27.4134L71.8433 22.4134C74.06 21.3034 76.6666 22.9167 76.6666 25.3934V54.6067C76.6666 57.0834 74.06 58.6967 71.8433 57.5867L61.8433 52.5867C60.7133 52.0234 60 50.87 60 49.6067L57.9058 39.8276L60 30.3934Z" fill="currentColor"/>
    </g>
    
    <path d="M6.66669 73.3334L73.3334 6.66675" stroke="currentColor" stroke-width="4" stroke-linecap="round"/>
</svg>
