<svg viewBox="0 0 80 80" fill="none" xmlns="http://www.w3.org/2000/svg">
    <path d="M13.3333 13.3334C10.6812 13.3334 8.13762 14.3869 6.26226 16.2623C4.3869 18.1377 3.33333 20.6812 3.33333 23.3334V56.6667C3.33333 59.3189 4.3869 61.8624 6.26226 63.7378C8.13762 65.6131 10.6812 66.6667 13.3333 66.6667H50C52.6522 66.6667 55.1957 65.6131 57.0711 63.7378C58.9464 61.8624 60 59.3189 60 56.6667V49.6C59.9957 50.2213 60.165 50.8313 60.489 51.3614C60.8129 51.8915 61.2785 52.3205 61.8333 52.6L71.8333 57.6C72.3433 57.857 72.9107 57.9787 73.4812 57.9534C74.0517 57.9281 74.6061 57.7566 75.0913 57.4555C75.5765 57.1543 75.9762 56.7336 76.252 56.2336C76.5279 55.7336 76.6707 55.1711 76.6667 54.6V25.4C76.6707 24.829 76.5279 24.2665 76.252 23.7665C75.9762 23.2665 75.5765 22.8458 75.0913 22.5446C74.6061 22.2435 74.0517 22.072 73.4812 22.0467C72.9107 22.0214 72.3433 22.1431 71.8333 22.4L61.8333 27.4C61.2785 27.6796 60.8129 28.1086 60.489 28.6387C60.165 29.1688 59.9957 29.7788 60 30.4V23.3334C60 20.6812 58.9464 18.1377 57.0711 16.2623C55.1957 14.3869 52.6522 13.3334 50 13.3334H13.3333Z" fill="currentColor"/>
</svg>
